<svg xmlns="http://www.w3.org/2000/svg" width="65" height="51" viewBox="0 0 65 51">
  <!-- Kingfisher Body -->
  <path d="M32.5 15c-8 0-12 4-12 8s2 6 6 8c-2 2-3 4-3 6 0 3 2 5 5 5 1 0 2-1 3-2 1 1 2 2 3 2 3 0 5-2 5-5 0-2-1-4-3-6 4-2 6-4 6-8s-4-8-12-8z" fill="#1E88E5"/>
  
  <!-- Kingfisher Head -->
  <ellipse cx="25" cy="18" rx="6" ry="7" fill="#0D47A1"/>
  <ellipse cx="25" cy="18" rx="4" ry="5" fill="#42A5F5"/>
  
  <!-- Kingfisher Beak -->
  <path d="M19 20 L12 18 L19 16 Z" fill="#FF6F00"/>
  
  <!-- Kingfisher Eye -->
  <circle cx="23" cy="17" r="1.5" fill="#000"/>
  <circle cx="23.5" cy="16.5" r="0.5" fill="#FFF"/>
  
  <!-- Kingfisher Wing -->
  <path d="M28 22 Q32 20 36 22 Q34 24 30 25 Z" fill="#1565C0"/>
  <path d="M30 24 Q34 22 38 24 Q36 26 32 27 Z" fill="#0D47A1"/>
  
  <!-- Kingfisher Chest/Belly -->
  <path d="M28 25 Q32 28 36 25 Q34 30 30 30 Z" fill="#FF6F00"/>
  <path d="M29 27 Q32 29 35 27 Q33 31 30 31 Z" fill="#FFB74D"/>
  
  <!-- Kingfisher Tail -->
  <path d="M36 28 L42 32 L40 35 L36 30 Z" fill="#0D47A1"/>
  <path d="M38 30 L44 34 L42 37 L38 32 Z" fill="#1565C0"/>
  
  <!-- Kingfisher Feet -->
  <line x1="30" y1="35" x2="28" y2="38" stroke="#FF6F00" stroke-width="1.5" stroke-linecap="round"/>
  <line x1="34" y1="35" x2="36" y2="38" stroke="#FF6F00" stroke-width="1.5" stroke-linecap="round"/>
</svg>